<svg xmlns="http://www.w3.org/2000/svg" viewBox="0 0 260 260"><defs><style>.cls-1{fill:none;}.cls-2{fill:#33a8a5;fill-rule:evenodd;}</style></defs><g id="Layer_2" data-name="Layer 2"><g id="Layer_1-2" data-name="Layer 1"><rect class="cls-1" width="260" height="260"/><path class="cls-2" d="M41.65,57.11s5.7-22,68.43-22.26c70.15-.28,75,21.44,75,21.44V74.42s5.79-4.71,19-4.12,31.64,11.21,34.62,33c4,28.79-.16,50.85-15.66,67.61a64.13,64.13,0,0,1-37.93,19.79v14s-6.8,21.33-68.43,21.43c-70.9.12-75-23.08-75-23.08Zm16.49,2.47S73.57,48,111.73,48s56.89,11.54,56.89,11.54-10.25,9.9-56.06,9.9S58.14,59.58,58.14,59.58Zm127,38.75s7.48-12.48,20.61-9.06,16.86,17.55,16.49,31.33-3.78,33.21-16.49,42.05-20.61,9.89-20.61,9.89ZM63.09,201.4V80.2l6.59,2.47V203.05Z"/></g></g></svg>