<svg xmlns="http://www.w3.org/2000/svg" viewBox="0 0 260 260"><defs><style>.cls-1{fill:none;}.cls-2{fill:#33a8a5;}</style></defs><g id="Layer_2" data-name="Layer 2"><g id="Layer_2-2" data-name="Layer 2"><rect class="cls-1" width="260" height="260"/><path class="cls-2" d="M193.09,219.56a288,288,0,0,1-126.77,0c1.09-8.4,2-16.06,3.1-23.71,1.55-11.28,2.51-22.62,3.25-34,1-15.84,1.69-31.7,1.42-47.57-.18-10.66-.4-21.32-1.21-31.95-.42-5.48-2.79-10.24-5.54-14.83a80.73,80.73,0,0,0-15.61-19c-.79-.7-1.64-1.35-2.82-2.32C55.74,42.71,62.37,40.9,69,39.12a250.2,250.2,0,0,1,28.09-5.63,3.68,3.68,0,0,1,3.55,1.1c15.21,15.33,41.44,16.48,58.32,0a3.39,3.39,0,0,1,3.19-1.16c15,2.36,29.8,5.17,44,10.67a10.85,10.85,0,0,1,4,2.06c-3.6,3.63-7.38,7-10.57,11-2.36,2.93-4.49,6-6.58,9.14a40.72,40.72,0,0,0-6.75,21.86c-.49,13.81-.88,27.61-.66,41.42a632.93,632.93,0,0,0,7.55,88.23A17.78,17.78,0,0,1,193.09,219.56Z"/><path class="cls-2" d="M192.16,103.18c-3.31-22.29,5.34-39.06,22.09-52.45,1.44,1.25,1.95,3,2.44,4.71,3.94,13.42,7.79,26.87,11.82,40.8C217,102.48,204.48,102.82,192.16,103.18Z"/><path class="cls-2" d="M67.11,103.15c-11.23-.14-22.69-.94-33.52-5.75-1.6-.71-2.52-1.49-1.9-3.57,3.71-12.62,7.28-25.28,11-37.91a12.35,12.35,0,0,1,2.62-5.31C61.43,64.27,71.29,80.47,67.11,103.15Z"/></g></g></svg>