<svg id="Layer_2" data-name="Layer 2" xmlns="http://www.w3.org/2000/svg" viewBox="0 0 1155.8 629.04"><defs><style>.cls-1{fill:#fff;}.cls-2{fill:none;}</style></defs><path class="cls-1" d="M1144.85,595.91c-23.42.76-39.49-11.22-53.43-27.4-9.16-10.62-16.31-22.5-22.45-35q-24.51-49.89-48.82-99.86c-.84-1.73-1.3-3.77-3.75-4.88q-39.1,35.85-91.81,45.61C931.89,489,939.13,503,946,517.17c5.75,12,13.2,23.29,15.92,36.56,3.38,16.5-1,29.19-15.8,36.88-6.71,3.5-13.93,4.51-21.29,5.74V613h214.49c.83,0,1.66-.05,2.49,0,2,.06,3.13-.68,3.1-2.89C1144.81,605.57,1144.85,601.1,1144.85,595.91ZM967.38,447.46a204.61,204.61,0,0,1-39.63,3.32c-29.21-.73-57.18-7.53-84.55-17.29-40.28-14.37-75.84-37.41-111-61-26.13-17.57-52.5-34.84-81.13-47.91a573.68,573.68,0,0,0-162.83-47.11c-10.55-1.41-21.57-1.93-31.89,0-37.81,7.19-75.71,14.25-112,27.71-7.93,2.94-15.79,6-23,10.66a18.06,18.06,0,0,0,5-.05c18-2.82,36.09-5.4,54.3-7.17,38.21-3.71,76.08-1.09,113.79,4.72A582,582,0,0,1,567,329.64c55.34,15.93,108.68,36.48,157.66,67.38,32.17,20.3,66.08,37.15,102.44,48.7,34.23,10.87,69,17.58,105.14,12.37A124.66,124.66,0,0,0,967.38,447.46ZM478,53c2.22,0,4-.08,5.83,0,20.62,1,35.67,10.27,43.13,30.73,5.67,15.54,3.56,31.36-2.7,46.5-14.16,34.22-29.9,67.74-44.81,101.63-5.11,11.6-10.28,23.17-15.68,35.34,13.35-1.19,26-1.17,38.65-1.06,2.25,0,3.16-1,4-2.84,7.43-16.37,15-32.67,22.45-49,17.17-37.85,34-75.89,51.54-113.56,9.32-20,23.77-35.24,45-43.37,8.84-3.38,18.17-4.32,27.31-6.54V33.17H478.93C479.15,39.92,477.15,46.1,478,53ZM1154,190.29c-1.44,3.68-2.89,7.35-4.2,11.06-13.15,37.28-32.63,70.89-59.08,100.25-15.89,17.64-34.71,31.78-55.36,43.52A150.14,150.14,0,0,1,995,360.6c-7.43,1.74-11,.09-13.85-6Q952.43,292.79,923.79,231,871.58,118,819.43,5C818.35,2.7,817.31.13,814,0s-5.59,1.64-7,4.54c-.74,1.47-1.43,3-2.11,4.46q-29,62.88-57.93,125.78-31.56,68.69-63.06,137.42c-6.13,13.36-12.24,26.73-18.51,40.43,11.1,6.76,22.1,13.1,32.74,20,34.5,22.4,69.18,44.44,107,61.05,22.26,9.78,45.06,18,68.89,22.79a260.09,260.09,0,0,0,59,4.6,162.67,162.67,0,0,0,36.38-4.95c23.89-6.2,45.9-16.32,65.19-32.11,24.21-19.83,45.9-42,64.12-67.44,21.54-30.06,40.09-61.74,50.77-97.48,3.06-10.22,5.89-20.48,6.38-32.07A36.34,36.34,0,0,0,1154,190.29ZM844.32,367.58C807.59,361,772.1,350,737.57,335.89c-10.44-4.27-20.56-9.14-29.75-15.87-3.49-2.56-4.08-4.67-2.35-8.53,10.67-23.8,21.06-47.71,31.66-71.53,11.07-24.9,22.28-49.73,33.43-74.59.66-1.46,1.35-2.91,2.66-5.74,31.11,71,61.4,141,93.9,211.27C858.43,371.06,851.4,368.86,844.32,367.58Z"/><path class="cls-1" d="M.82,48l-.41,0L0,48V33H1Q.94,40.55.82,48Z"/><path class="cls-1" d="M.82,48q.11-7.5.22-15,89.24-.12,178.46-.24c18.49,0,37,.11,55.49.17h5.68v15.7c-12.72,1.65-25.21,3.77-35.85,11.52-14.65,10.67-19.28,24.19-12.44,42.63,10.65,28.7,26.06,55.33,39.08,83,19.16,40.73,38.62,81.32,57.94,122,3.76,7.89,7.64,15.74,11.14,23.75,1.34,3.07,2.74,4,6.22,3.47,42-5.9,84.08-5.89,126.11-1.67,47.44,4.78,93.72,15.31,139.16,29.91,29.09,9.34,58.35,18.21,86.53,30,25.05,10.46,49.13,23.14,73.55,35a634.1,634.1,0,0,0,97.64,38.09c13.24,3.92,26.59,7.41,40.17,10.6-10.95,0-21.94.58-32.85-.16-11.56-.78-23.17-1.4-34.63-3.6-31.47-6.05-62.54-13.53-92.67-24.63-16.83-6.21-33.72-12.24-50.63-18.24-7.37-2.63-8.7-2.15-12.1,5.46-6.85,15.33-13.42,30.78-20.07,46.2a409.72,409.72,0,0,0-15.38,41.09c-8.05,25.91,4.23,51.43,20.68,61.52,11.56,7.1,24.06,11.79,38.76,10.14,0,5.23-.08,10,0,14.77,0,2.18-1.12,3-2.93,3.24a35.26,35.26,0,0,1-4.48.19H487.24a7.52,7.52,0,0,1-.39-1.69c.23-5.12-2-11.49,1-15s9.47-.89,14.39-1.41c10-1,18.78-5.11,26.54-11.28,12.56-10,21.7-22.52,28.32-37.15,19.26-42.51,38.79-84.88,58.22-127.31l1.57-3.47c-95.62-31.08-193.62-43-295-43L370.3,479.47c2.72-1.31,3-3.4,3.73-5.11,11.83-26.4,23.7-52.79,35.38-79.26,1.27-2.9,2.78-3.52,5.63-3.13,11,1.49,22.12,2.82,33.76,4.29-2.19,4.72-4.29,9.31-6.44,13.88Q393.15,514.56,343.92,619a33.64,33.64,0,0,1-2,4c-2.38,3.67-5.64,6.17-10.17,6.11-4.29-.06-6.15-3.47-7.74-6.74Q297,567,270.13,511.55c-19.69-40.45-39.53-80.83-59-121.39-2.44-5.08-5.58-5.71-10.2-5-31.49,5-62.41,12.56-93.06,21.08C80.15,414,52.9,423.33,26,433.49c-1.64.62-3.22,1.77-5.19,1.34C39.12,421.22,158,369.19,195.49,358.37c-2.11-6.6-5.65-12.54-8.64-18.69C171,307.07,154.84,274.59,139,242q-34.68-71.4-69-143C61.44,81.2,50.27,66,31.72,57.56,23.1,53.64,14.26,50.42,4.53,51,2.37,51.15.48,51,.82,48Z"/><path class="cls-1" d="M1144.85,595.91c0,5.19,0,9.66,0,14.12,0,2.21-1.09,3-3.1,2.89-.83,0-1.66,0-2.49,0H924.79v-16.6c7.36-1.23,14.58-2.24,21.29-5.74,14.75-7.69,19.18-20.38,15.8-36.88-2.72-13.27-10.17-24.58-15.92-36.56-6.83-14.21-14.07-28.22-21.37-42.8q52.62-9.83,91.81-45.61c2.45,1.11,2.91,3.15,3.75,4.88q24.41,49.92,48.82,99.86c6.14,12.51,13.29,24.39,22.45,35C1105.36,584.69,1121.43,596.67,1144.85,595.91Z"/><path class="cls-1" d="M967.38,447.46a124.66,124.66,0,0,1-35.19,10.63c-36.19,5.21-70.91-1.5-105.14-12.37-36.36-11.55-70.27-28.4-102.44-48.7-49-30.9-102.32-51.45-157.66-67.38a582,582,0,0,0-72.45-16.31c-37.71-5.81-75.58-8.43-113.79-4.72-18.21,1.77-36.26,4.35-54.3,7.17a18.06,18.06,0,0,1-5,.05c7.21-4.62,15.07-7.72,23-10.66,36.28-13.46,74.18-20.52,112-27.71,10.32-2,21.34-1.44,31.89,0a573.68,573.68,0,0,1,162.83,47.11c28.63,13.07,55,30.34,81.13,47.91,35.15,23.63,70.71,46.67,111,61,27.37,9.76,55.34,16.56,84.55,17.29A204.61,204.61,0,0,0,967.38,447.46Z"/><path class="cls-1" d="M478,53c-.83-6.93,1.17-13.11.95-19.86H652.71V50.82C643.57,53,634.24,54,625.4,57.36c-21.23,8.13-35.68,23.39-45,43.37C562.83,138.4,546,176.44,528.86,214.29c-7.43,16.38-15,32.68-22.45,49-.85,1.87-1.76,2.87-4,2.84-12.65-.11-25.3-.13-38.65,1.06,5.4-12.17,10.57-23.74,15.68-35.34,14.91-33.89,30.65-67.41,44.81-101.63,6.26-15.14,8.37-31,2.7-46.5C519.48,63.31,504.43,54,483.81,53,482,53,480.2,53,478,53Z"/><path class="cls-2" d="M867.12,370.9c-8.69.16-15.72-2-22.8-3.32C807.59,361,772.1,350,737.57,335.89c-10.44-4.27-20.56-9.14-29.75-15.87-3.49-2.56-4.08-4.67-2.35-8.53,10.67-23.8,21.06-47.71,31.66-71.53,11.07-24.9,22.28-49.73,33.43-74.59.66-1.46,1.35-2.91,2.66-5.74C804.33,230.65,834.62,300.65,867.12,370.9Z"/></svg>