<svg xmlns="http://www.w3.org/2000/svg" viewBox="0 0 260 260"><defs><style>.cls-1{fill:none;}.cls-2{fill:#fff;}.cls-3{fill:#33a8a5;}</style></defs><g id="Layer_2" data-name="Layer 2"><g id="Layer_4" data-name="Layer 4"><rect class="cls-1" width="260" height="260"/><path class="cls-2" d="M40.7,130v71.52L127.79,220V112.3L98.07,142.18Zm122.56,12.38c-10.41-9.63-19.75-19.73-30.66-29.16V220.15l86.93-19.26V129.81Zm-156.82-24,88.2,18.64,35-34L41,83.69l89.14-19.38-27.8-24.46L12.74,59.29,40.39,83.52ZM164.75,137.8l88.81-20.41L220.37,83.84l-90,19.39Zm-34.4-73.57,89.88,19.36,27.38-24.45L158.48,40.05Z"/><path class="cls-3" d="M40.7,130l57.37,12.19,29.72-29.88V220L40.7,201.51Z"/><path class="cls-3" d="M163.26,142.37l56.27-12.56v71.08L132.6,220.15V113.21C143.51,122.64,152.85,132.74,163.26,142.37Z"/><path class="cls-3" d="M6.44,118.42l34-34.9L12.74,59.29l89.55-19.44,27.8,24.46L41,83.69,129.67,103l-35,34Z"/><path class="cls-3" d="M164.75,137.8l-34.33-34.57,90-19.39,33.19,33.55Z"/><path class="cls-3" d="M130.35,64.23l28.13-24.18,89.13,19.09L220.23,83.59Z"/></g></g></svg>